# xmcd
#
# Track frame offsets:
#	150
#	30675
#	57311
#	98836
#	109008
#	132991
#	159943
#	166970
#	168939
#	182927
#	188917
#	197340
#	211008
#	232159
#
# Disc length: 3307 seconds
#
# Revision: 1
# Processed by: cddbd v1.5.1PL0 Copyright (c) Steve Scherf et al.
# Submitted via: CDex 1.50Beta5
#
DISCID=b70ce90e
DTITLE=さまざまなアーティスト - e.a.d.g.b.e
DYEAR=1900
DGENRE=
TTITLE0=FONICA/4.55
TTITLE1=FONICA/3.33
TTITLE2=KEITH FULLERTON WHITTMAN/LETTERA
TTITLE3=SEBASTEIN ROUX/BIRATORI
TTITLE4=SEBASTEIN ROUX/UTARO
TTITLE5=SEBASTEIN ROUX/TOASA
TTITLE6=CHRISTOPHER WILLITS/THE BAROQUE MACHINE
TTITLE7=CHRISTOPHER WILLITS/THE MACROBIOTEC MACHINE
TTITLE8=CHRISTOPHER WILLITS/THE ROLLER SKATING IN SAN FRANCISCO MACHINE
TTITLE9=CHRISTOPHER WILLITS/THE KOTEKAN MACHINE
TTITLE10=CHRISTOPHER WILLITS/THE YELLOW SPROUT MACHINE
TTITLE11=CHRISTOPHER WILLITS/THE SEAWEED MACHINE
TTITLE12=CHRISTOPHER WILLITS/THE FALL IN LOVE MACHINE
TTITLE13=CHRISTOPHER WILLITS/CHANPAGNE AND SODA
EXTD=
EXTT0=
EXTT1=
EXTT2=
EXTT3=
EXTT4=
EXTT5=
EXTT6=
EXTT7=
EXTT8=
EXTT9=
EXTT10=
EXTT11=
EXTT12=
EXTT13=
PLAYORDER=
